<?xml version="1.0" encoding="UTF-8"?>
<svg width="29px" height="32px" viewBox="0 0 29 32" version="1.1" xmlns="http://www.w3.org/2000/svg" xmlns:xlink="http://www.w3.org/1999/xlink">
    <!-- Generator: Sketch 63 (92445) - https://sketch.com -->
    <title>icon/32*32/path</title>
    <desc>Created with Sketch.</desc>
    <g id="页面-1" stroke="none" stroke-width="1" fill="none" fill-rule="evenodd">
        <g id="参考资源" transform="translate(-1861.000000, -352.000000)" fill="#EEEEEE">
            <g id="icon/32*32/path" transform="translate(1860.000000, 352.000000)">
                <path d="M25.36,6.85714286 C24.08052,6.85714286 23.04,5.832 23.04,4.57142857 C23.04,3.31085714 24.08052,2.28571429 25.36,2.28571429 C26.63948,2.28571429 27.68,3.31085714 27.68,4.57142857 C27.68,5.832 26.63948,6.85714286 25.36,6.85714286 M7.96,27.4285714 C7.96,28.6891429 6.91948,29.7142857 5.64,29.7142857 C4.36052,29.7142857 3.32,28.6891429 3.32,27.4285714 C3.32,26.168 4.36052,25.1428571 5.64,25.1428571 C6.91948,25.1428571 7.96,26.168 7.96,27.4285714 M30,4.57142857 C30,2.05085714 27.91838,0 25.36,0 C22.80162,0 20.72,2.05085714 20.72,4.57142857 C20.72,6.69828571 22.20364,8.48514286 24.2029,8.99314286 C24.2029,9.00342857 24.2,9.012 24.2,9.02228571 L24.2,25.7142857 C24.2,27.9194286 22.50872,29.7142857 20.43,29.7142857 C18.35128,29.7142857 16.66,27.9194286 16.66,25.7142857 L16.66,6.28571429 C16.66,2.82 13.9282,0 10.57,0 C7.2118,0 4.48,2.82 4.48,6.28571429 L4.48,22.8302857 C4.48,22.8897143 4.4887,22.9462857 4.4974,23.0034286 C2.4906,23.5068571 1,25.2971429 1,27.4285714 C1,29.9491429 3.08162,32 5.64,32 C8.19838,32 10.28,29.9491429 10.28,27.4285714 C10.28,25.2971429 8.7894,23.5068571 6.7826,23.0034286 C6.7913,22.9462857 6.8,22.8897143 6.8,22.8302857 L6.8,6.28571429 C6.8,4.08057143 8.49128,2.28571429 10.57,2.28571429 C12.64872,2.28571429 14.34,4.08057143 14.34,6.28571429 L14.34,25.7142857 C14.34,29.18 17.0718,32 20.43,32 C23.7882,32 26.52,29.18 26.52,25.7142857 L26.52,9.02228571 C26.52,9.012 26.5171,9.00342857 26.5171,8.99314286 C28.51636,8.48514286 30,6.69828571 30,4.57142857" id="Fill-1"></path>
            </g>
        </g>
    </g>
</svg>