<?xml version="1.0" encoding="UTF-8"?>
<svg width="32px" height="31px" viewBox="0 0 32 31" version="1.1" xmlns="http://www.w3.org/2000/svg" xmlns:xlink="http://www.w3.org/1999/xlink">
    <!-- Generator: Sketch 63 (92445) - https://sketch.com -->
    <title>icon/32*32/pin</title>
    <desc>Created with Sketch.</desc>
    <g id="页面-1" stroke="none" stroke-width="1" fill="none" fill-rule="evenodd">
        <g id="参考资源" transform="translate(-1860.000000, -216.000000)" fill="#EEEEEE">
            <g id="icon/32*32/pin" transform="translate(1860.000000, 216.000000)">
                <g id="编组">
                    <path d="M8.88974573,5.63351769 C12.7274163,-0.158822675 20.534438,-1.74335304 26.3264934,2.09480483 C32.1187999,5.9331291 33.7032413,13.7395032 29.8651991,19.531384 C27.8653141,22.5500869 24.7866323,24.6921698 20.9457751,26.1019586 C18.6363357,26.9496396 16.1776025,27.4865288 13.7066408,27.7770417 C12.8150061,27.881872 11.9739669,27.9478471 11.200857,27.9824412 L10.7873167,27.9981972 C10.6581836,28.0022062 10.5378998,28.0050293 10.4268726,28.0068377 L9.99041535,28.0093067 L9.46325941,28.0348492 C7.56450777,28.1080672 5.26853924,28.0597187 2.73032661,27.8128666 L2.44188091,27.7828397 L2.44194727,30.6254044 L9.19418585e-15,30.6254044 L9.19418585e-15,25.0286026 L1.37517426,25.2036795 C4.24983117,25.5696595 6.86370635,25.6675764 8.97854006,25.6077538 L9.76596589,25.5764296 L9.87865272,25.5693989 L10.3955393,25.5650893 C10.5921334,25.5617989 10.8253034,25.5548552 11.0916972,25.5429349 C11.8079405,25.5108854 12.5905724,25.4494921 13.421503,25.3517989 C15.7151655,25.0821311 17.9915542,24.5850587 20.1043477,23.8095567 C23.4944844,22.5652052 26.1502663,20.7173672 27.8295435,18.1826022 C30.9226429,13.5148933 29.6457501,7.22377847 24.9775978,4.13038509 C20.3098509,1.03726041 14.0181959,2.3142286 10.9254018,6.98229892 C8.23684236,11.0398038 8.19983368,16.6359708 9.82852999,22.5854187 L9.93710077,22.9739148 L7.58875479,23.6435249 C5.67394939,16.928235 5.65046974,10.5221498 8.88974573,5.63351769 Z" id="Stroke-1" fill-rule="nonzero"></path>
                    <path d="M13.5519154,8.72278809 C11.4206228,11.9400708 12.3008705,16.2756563 15.5179058,18.4075247 C18.7352444,20.5395941 23.0716731,19.6596794 25.2028215,16.4418745 C27.3345062,13.2251165 26.4544571,8.88938219 23.2372626,6.75740823 C20.0202163,4.62553256 15.6838775,5.50561145 13.5519154,8.72278809 Z M21.8883357,8.79296783 C23.9814087,10.1800077 24.5538973,13.0004851 23.1670828,15.093218 C21.7806476,17.186586 18.9598412,17.7589623 16.8668326,16.3719651 C14.7738185,14.9849643 14.2011658,12.1644115 15.5875828,10.0715523 C16.9370066,8.03524281 19.6441232,7.43818821 21.7170984,8.68480654 L21.8883357,8.79296783 Z" id="Stroke-3" fill-rule="nonzero"></path>
                </g>
            </g>
        </g>
    </g>
</svg>