<?xml version="1.0" encoding="UTF-8"?>
<svg width="32px" height="32px" viewBox="0 0 32 32" version="1.1" xmlns="http://www.w3.org/2000/svg" xmlns:xlink="http://www.w3.org/1999/xlink">
    <!-- Generator: Sketch 63 (92445) - https://sketch.com -->
    <title>icon/32*32/cubage/Selected</title>
    <desc>Created with Sketch.</desc>
    <g id="icon/32*32/cubage/Selected" stroke="none" stroke-width="1" fill="none" fill-rule="evenodd">
        <path d="M23.4601086,0 L23.4601086,3.10649574 L8.53931615,3.10649574 L8.53931615,0 L0,0 L0,8.50476259 L3.11911696,8.50476259 L3.11911696,23.4952374 L0,23.4952374 L0,32 L8.53931615,32 L8.53931615,28.8940772 L23.4601086,28.8940772 L23.4601086,32 L32,32 L32,23.4952374 L28.8803078,23.4952374 L28.8803078,8.50476259 L32,8.50476259 L32,0 L23.4601086,0 Z M25.7611908,6.21299148 L29.6983425,6.21299148 L29.6983425,2.29177111 L25.7611908,2.29177111 L25.7611908,6.21299148 Z M2.30108223,6.21299148 L6.23823392,6.21299148 L6.23823392,2.29177111 L2.30108223,2.29177111 L2.30108223,6.21299148 Z M5.42019919,16.6663325 L16.7346205,5.39769391 L23.4601086,5.39769391 L23.4601086,6.95323355 L6.85032179,23.4952374 L5.42019919,23.4952374 L5.42019919,16.6663325 Z M5.42019919,8.50476259 L8.53931615,8.50476259 L8.53931615,5.39769391 L13.480315,5.39769391 L5.42019919,13.4251952 L5.42019919,8.50476259 Z M8.53931615,25.0542147 L25.1565815,8.50476259 L26.5798008,8.50476259 L26.5798008,15.609826 L15.5426599,26.6017332 L8.53931615,26.6017332 L8.53931615,25.0542147 Z M26.5798008,18.8503903 L26.5798008,23.4952374 L23.4601086,23.4952374 L23.4601086,26.6017332 L18.7963902,26.6017332 L26.5798008,18.8503903 Z M25.7611908,29.7082289 L29.6983425,29.7082289 L29.6983425,25.7870085 L25.7611908,25.7870085 L25.7611908,29.7082289 Z M2.30108223,29.7082289 L6.23823392,29.7082289 L6.23823392,25.7870085 L2.30108223,25.7870085 L2.30108223,29.7082289 Z" id="Fill-1" fill="#008EFF"></path>
    </g>
</svg>